# ProBuilder 4.4.0
# https://unity3d.com/unity/features/worldbuilding/probuilder
# 5/31/2022 3:18:50 PM

mtllib ./6Structure.mtl
o 6Structure

g Cube
v -2 0 0
v -4 0 0
v -4 3.54 0
v -2 3.54 0
v -4 7.08 0
v -2 7.08 0
v 0 7.08 0
v 0 3.54 0
v -0.1417351 -0.3952489 1.812639
v -1.12989 -0.2417879 1.812639
v -0.8582649 1.507246 1.812639
v 0.1298904 1.353785 1.812639
v -1 0 1.158319
v -2 0 1.158319
v -2 1.77 1.158319
v -1 1.77 1.158319
v -2 3.54 1.158319
v -1 3.54 1.158319
v 0 3.54 1.158319
v 0 1.77 1.158319
v 0 -0.4134197 0.02198839
v 0 -0.5272493 1.158319
v -4 0 -4
v -2 -0.272542 -4
v -2 3.403729 -4
v -4 3.54 -4
v -1.831835 -0.03449976 -3.435688
v -0.1681652 -0.268921 -3.435688
v -0.1681652 3.010355 -3.435688
v -1.831835 3.127566 -3.435688
v 0 3.267458 -4
v 0 7.08 -4
v -2 7.08 -4
v -4 7.08 -4
v 0 -0.545084 -4

vt -2 0
vt -4 0
vt -4 3.54
vt -2 3.54
vt -4 7.08
vt -2 7.08
vt 0 7.08
vt 0 3.54
vt -0.1417351 -0.3952489
vt -1.12989 -0.2417879
vt -0.8582649 1.507246
vt 0.1298904 1.353785
vt -1 0
vt -2 1.77
vt -1 1.77
vt -1 3.54
vt 0 1.77
vt 0.09469839 0.01125942
vt -1.946824 -0.01220494
vt -1.946824 1.145702
vt -0.973412 1.151805
vt 0.1207723 1.144234
vt 0 0
vt 1.158319 3.54
vt 1.158319 1.77
vt 1.158319 0
vt -0.02198839 -0.4134197
vt -1.158319 -0.5272493
vt -1.158319 1.77
vt -1.158319 3.54
vt 2 0
vt 0 1.158319
vt 1 1.158319
vt 2 1.158319
vt 0.2459054 1.11886
vt -0.8845776 1.11886
vt 0.05896562 1.775139
vt -0.8867076 1.750042
vt 1.330861 0
vt 1.330861 1.77
vt 1.99795 -0.2417879
vt 1.945061 1.507246
vt -1.136149 1.77
vt -1.136149 -0.5272493
vt -1.803237 1.353785
vt -1.750348 -0.3952489
vt 1 0.4153093
vt 0 0.4153093
vt 0.8582649 1.120416
vt -0.1298904 1.177602
vt 4 0
vt 2 -0.272542
vt 2 3.403729
vt 4 3.54
vt 1.831835 -0.03449976
vt 0.1681652 -0.268921
vt 0.1681652 3.010355
vt 1.831835 3.127566
vt 0 3.267458
vt 2 7.08
vt 4 7.08
vt 4 3.267458
vt 4 -0.545084
vt 4 -4
vt 2 -4
vt 0 -4
vt -1.985776 -0.007936446
vt 0.04921866 0.008294197
vt 0.06489362 -4.015817
vt -1.953329 -4.014734
vt -3.971552 -4.01365
vt -3.971552 -0.01587289
vt 4.404587 3.403729
vt 4.404587 -0.272542
vt 3.815751 3.127566
vt 3.815751 -0.03449976
vt -0.2221149 -5.011599
vt -2.226752 -5.011599
vt -0.3724138 -4.386907
vt -2.040203 -4.388557
vt 1.944885 -3.861419
vt -0.07359892 -3.861419
vt 1.810401 -3.24069
vt 0.1303147 -3.243872
vt -3.833408 -0.545084
vt -3.833408 3.267458
vt -3.244573 -0.268921
vt -3.244573 3.010355

vn 0 0 1
vn -0.3328786 -0.9225786 0.04271085
vn -0.1005922 -0.982016 0.08684333
vn 0 -1 0
vn -0.2219191 -0.9483857 0.0284739
vn -0.4645727 -0.8811252 -0.08826496
vn -1 0 0
vn 1 0 0
vn 0 1 0
vn -0.4650013 -0.8819382 0.07719339
vn -0.3038505 -0.9004003 -0.1453385
vn -0.1426998 -0.9188625 -0.3678703
vn -0.9808604 0 -0.1947124
vn -0.9667402 0.0739711 0.03552364
vn -0.95262 0.1479422 0.2657597
vn 0.9808604 0 -0.1947124
vn 0.9703141 -0.07452613 0.02162805
vn 0.9597679 -0.1490523 0.2379685
vn 0 0.9279742 0.3726443
vn 0.06585084 0.8880093 0.4429715
vn 0.1317017 0.8480443 0.5132986
vn 0 0 -1
vn -0.1124665 -0.9885238 0.04464173
vn -0.1688176 -0.9836504 0.04949313
vn -0.1349521 -0.9903216 0.03241928
vn -0.1574506 -0.9852977 0.05544816
vn -0.06735822 -0.9942961 0.03367911
vn 0.9583521 0 -0.2855893
vn -0.0614075 -0.9012555 -0.4289146
vn -0.06253961 -0.9025019 -0.4261084
vn -0.06367172 -0.9037483 -0.4233023
vn 0.1227509 0.900785 -0.4165556
vn 0.1251603 0.903069 -0.4108007
vn 0.1275698 0.905353 -0.4050457
vn -0.9583521 0 -0.2855893

usemtl Lit
f 21/18/2 22/22/6 13/21/5
f 21/18/2 13/21/5 1/19/3
f 14/20/4 1/19/3 13/21/5
f 1/23/7 14/26/7 15/25/7
f 4/8/7 1/23/7 15/25/7
f 4/8/7 15/25/7 17/24/7
f 19/30/8 20/29/8 8/8/8
f 20/29/8 21/27/8 8/8/8
f 20/29/8 22/28/8 21/27/8
f 18/33/9 4/31/9 17/34/9
f 4/31/9 18/33/9 8/23/9
f 18/33/9 19/32/9 8/23/9
f 3/8/7 23/2/7 2/23/7
f 3/8/7 26/3/7 23/2/7
f 5/7/7 26/3/7 3/8/7
f 5/7/7 34/5/7 26/3/7
f 7/7/8 8/8/8 32/61/8
f 8/8/8 31/62/8 32/61/8
f 21/27/8 31/62/8 8/8/8
f 21/27/8 35/63/8 31/62/8
f 7/23/9 32/66/9 33/65/9
f 6/31/9 34/64/9 5/51/9
f 6/31/9 33/65/9 34/64/9
f 7/23/9 33/65/9 6/31/9
f 24/70/26 35/69/25 21/68/24
f 1/67/23 24/70/26 21/68/24
f 23/71/27 24/70/26 1/67/23
f 23/71/27 1/67/23 2/72/4
f 3/3/1 2/2/1 1/1/1
f 1/1/1 4/4/1 3/3/1
f 5/5/1 3/3/1 4/4/1
f 4/4/1 6/6/1 5/5/1
f 6/6/1 4/4/1 8/8/1
f 8/8/1 7/7/1 6/6/1
f 11/11/1 10/10/1 9/9/1
f 9/9/1 12/12/1 11/11/1
f 15/14/1 14/1/1 13/13/1
f 13/13/1 16/15/1 15/14/1
f 17/4/1 15/14/1 16/15/1
f 16/15/1 18/16/1 17/4/1
f 18/16/1 16/15/1 20/17/1
f 20/17/1 19/8/1 18/16/1
f 10/38/12 13/36/11 22/35/10
f 22/35/10 9/37/11 10/38/12
f 11/42/15 16/40/14 13/39/13
f 13/39/13 10/41/14 11/42/15
f 9/46/18 22/44/17 20/43/16
f 20/43/16 12/45/17 9/46/18
f 12/50/21 20/48/20 16/47/19
f 16/47/19 11/49/20 12/50/21
f 24/52/22 23/51/22 26/54/22
f 26/54/22 25/53/22 24/52/22
f 28/56/22 27/55/22 30/58/22
f 30/58/22 29/57/22 28/56/22
f 25/53/22 33/60/22 32/7/22
f 32/7/22 31/59/22 25/53/22
f 26/54/22 34/61/22 33/60/22
f 33/60/22 25/53/22 26/54/22
f 27/76/28 24/74/28 25/73/28
f 25/73/28 30/75/28 27/76/28
f 30/80/31 25/78/30 31/77/29
f 31/77/29 29/79/30 30/80/31
f 28/84/34 35/82/33 24/81/32
f 24/81/32 27/83/33 28/84/34
f 29/88/35 31/86/35 35/85/35
f 35/85/35 28/87/35 29/88/35

