# ProBuilder 4.4.0
# https://unity3d.com/unity/features/worldbuilding/probuilder
# 5/31/2022 3:15:22 PM

mtllib ./Bridge.mtl
o Bridge

g Bridge
v 0 0 0
v 0.4019239 1.5 0
v 0 0 1
v 0.4019239 1.5 1
v 0.8349366 1.25 0
v 0.5 0 0
v 0.8349366 1.25 1
v 0.5 0 1
v 1.5 2.598076 0
v 1.5 2.598076 1
v 1.75 2.165064 0
v 1.75 2.165064 1
v 3 3 0
v 3 3 1
v 3 2.5 0
v 3 2.5 1
v 4.5 2.598076 0
v 4.5 2.598076 1
v 4.25 2.165063 0
v 4.25 2.165063 1
v 5.598076 1.5 0
v 5.598076 1.5 1
v 5.165063 1.25 0
v 5.165063 1.25 1
v 6 -2.622683E-07 0
v 6 -2.622683E-07 1
v 5.5 -2.185569E-07 0
v 5.5 -2.185569E-07 1

vt 0 0
vt 0 1.552914
vt 1 0
vt 1 1.552914
vt 0 1.423505
vt 0 0.1294096
vt -1 1.423505
vt -1 0.1294096
vt 0 1
vt 0.5 1
vt 0.5 0
vt -1.344863 0
vt -2.897778 0
vt -1.344863 1
vt -2.897778 1
vt 2.768368 0
vt 1.474273 0
vt 2.768368 1
vt 1.474273 1
vt -2.12132 0
vt -3.674235 0
vt -2.12132 1
vt -3.674235 1
vt 3.544825 0
vt 2.25073 0
vt 3.544825 1
vt 2.25073 1
vt 0 -1.552915
vt -1 -3.599888E-07
vt -1 -1.552915
vt 0 -1.423505
vt 0 -0.1294095
vt 1 -1.423505
vt 1 -0.1294095
vt 5.5 1
vt 6 1
vt 5.5 0
vt 6 0
vt 0.4019239 1.5
vt 0.8349366 1.25
vt -0.4019239 1.5
vt -0.8349366 1.25
vt -0.5 0
vt 1.5 2.598076
vt 1.75 2.165064
vt -1.5 2.598076
vt -1.75 2.165064
vt 3 3
vt 3 2.5
vt -3 3
vt -3 2.5
vt 4.5 2.598076
vt 4.25 2.165063
vt -4.5 2.598076
vt -4.25 2.165063
vt 5.598076 1.5
vt 5.165063 1.25
vt -5.598076 1.5
vt -5.165063 1.25
vt -6 -2.622683E-07
vt -5.5 -2.185569E-07

vn -0.9659258 0.2588191 0
vn 0.9659258 -0.2588191 0
vn 0 -1 0
vn -0.7071068 0.7071067 0
vn 0.7071068 -0.7071068 0
vn -0.258819 0.9659259 0
vn 0.258819 -0.9659259 0
vn 0.2588192 0.9659258 0
vn -0.2588191 -0.9659258 0
vn 0.7071068 0.7071068 0
vn -0.7071068 -0.7071068 0
vn 0.9659258 0.2588192 0
vn -0.9659258 -0.2588191 0
vn 0 0 1
vn 0 0 -1

usemtl Lit
f 3/3/1 4/4/1 2/2/1 1/1/1
f 7/7/2 8/8/2 6/6/2 5/5/2
f 1/1/3 6/11/3 8/10/3 3/9/3
f 4/14/4 10/15/4 9/13/4 2/12/4
f 12/18/5 7/19/5 5/17/5 11/16/5
f 10/22/6 14/23/6 13/21/6 9/20/6
f 16/26/7 12/27/7 11/25/7 15/24/7
f 14/22/8 18/23/8 17/21/8 13/20/8
f 20/26/9 16/27/9 15/25/9 19/24/9
f 18/14/10 22/15/10 21/13/10 17/12/10
f 24/18/11 20/19/11 19/17/11 23/16/11
f 22/29/12 26/30/12 25/28/12 21/1/12
f 28/33/13 24/34/13 23/32/13 27/31/13
f 27/37/3 25/38/3 26/36/3 28/35/3
f 8/11/14 7/40/14 4/39/14 3/1/14
f 5/42/15 6/43/15 1/1/15 2/41/15
f 7/40/14 12/45/14 10/44/14 4/39/14
f 11/47/15 5/42/15 2/41/15 9/46/15
f 12/45/14 16/49/14 14/48/14 10/44/14
f 15/51/15 11/47/15 9/46/15 13/50/15
f 16/49/14 20/53/14 18/52/14 14/48/14
f 19/55/15 15/51/15 13/50/15 17/54/15
f 20/53/14 24/57/14 22/56/14 18/52/14
f 23/59/15 19/55/15 17/54/15 21/58/15
f 24/57/14 28/37/14 26/38/14 22/56/14
f 27/61/15 23/59/15 21/58/15 25/60/15

