# ProBuilder 4.4.0
# https://unity3d.com/unity/features/worldbuilding/probuilder
# 5/31/2022 10:08:54 PM

mtllib ./WindmillBase.mtl
o WindmillBase

g Cube
v 0 0 0
v -4 0 0
v 0 1.8 0
v -4 1.8 0
v -4 0 -4
v -4 1.8 -4
v 0 0 -4
v 0 1.8 -4
v -1.649502 10.527 -1.674626
v -2.955999 10.527 -1.674626
v -1.649502 10.527 -2.325374
v -2.955999 10.527 -2.325374
v -2.547739 2.205959 -1.452261
v -1.452261 2.205959 -1.452261
v -1.452261 2.205959 -2.547739
v -2.547739 2.205959 -2.547739
v -1.452261 9.027002 -1.452261
v -2.547739 9.027002 -1.452261
v -1.452261 9.027002 -2.547739
v -2.547739 9.027002 -2.547739
v -1.102554 9.527002 -1.180358
v -3.502947 9.527002 -1.180358
v -1.102554 9.527002 -2.819642
v -3.502947 9.527002 -2.819642
v -1.102554 10.027 -1.180358
v -3.502947 10.027 -1.180358
v -1.102554 10.027 -2.819642
v -3.502947 10.027 -2.819642

vt 0 0
vt -4 0
vt 0 1.8
vt -4 1.8
vt 4 0
vt 4 1.8
vt 0.2 -0.2
vt 3.8 -0.2
vt 0.2 -3.8
vt 3.8 -3.8
vt 0 -4
vt -4 -4
vt 4 -0.484588
vt 0 -0.484588
vt 2.547739 -1.992522
vt 1.452261 -1.992522
vt 0.484588 0
vt 0.484588 -4
vt 1.992522 -1.452261
vt 1.992522 -2.547739
vt 3.367732 -4
vt 3.367732 0
vt 1.859798 -2.547739
vt 1.859798 -1.452261
vt 0 -3.367732
vt 4 -3.367732
vt 1.452261 -1.859798
vt 2.547739 -1.859798
vt -1.452261 2.205959
vt -2.547739 2.205959
vt -1.452261 9.027002
vt -2.547739 9.027002
vt 2.547739 2.205959
vt 1.452261 2.205959
vt 2.547739 9.027002
vt 1.452261 9.027002
vt -1.452261 7.236459
vt -2.547739 7.236459
vt -1.102554 7.805608
vt -3.502947 7.805608
vt 2.547739 6.564894
vt 1.452261 6.564894
vt 2.819642 7.175054
vt 1.180358 7.175054
vt -6.443518 -1.452261
vt -6.443518 -2.547739
vt -7.521674 -1.180358
vt -7.521674 -2.819642
vt 2.547739 9.1474
vt 1.452261 9.1474
vt 3.502947 9.71655
vt 1.102554 9.71655
vt -1.102554 9.527002
vt -3.502947 9.527002
vt -1.102554 10.027
vt -3.502947 10.027
vt 2.819642 9.527002
vt 1.180358 9.527002
vt 2.819642 10.027
vt 1.180358 10.027
vt -1.180358 9.527002
vt -2.819642 9.527002
vt -1.180358 10.027
vt -2.819642 10.027
vt 3.502947 9.527002
vt 1.102554 9.527002
vt 3.502947 10.027
vt 1.102554 10.027
vt -1.102554 7.960732
vt -3.502947 7.960732
vt -1.649502 8.663797
vt -2.955999 8.663797
vt 7.579189 -2.819642
vt 7.579189 -1.180358
vt 8.320236 -2.325374
vt 8.320236 -1.674626
vt -4.179993 -1.180358
vt -4.179993 -2.819642
vt -4.921041 -1.674626
vt -4.921041 -2.325374
vt 3.502947 5.148655
vt 1.102554 5.148655
vt 2.955999 5.851721
vt 1.649502 5.851721

vn 0 0 1
vn -1 0 0
vn 0 0 -1
vn 1 0 0
vn 0 1 0
vn 0 -1 0
vn 0 0.9630799 0.2692156
vn 0.2692156 0.9630799 0
vn -0.2692156 0.9630799 0
vn 0 0.9630799 -0.2692156
vn 0 -0.4777355 0.8785037
vn 0.8194574 -0.5731402 0
vn -0.4637545 -0.8859637 0
vn 0 -0.4777356 -0.8785037
vn 0 0.7030187 0.7111714
vn 0.6747204 0.7380734 0
vn -0.6747205 0.7380733 0
vn 0 0.7030187 -0.7111713

usemtl Lit
f 3/3/1 4/4/1 2/2/1 1/1/1
f 4/3/2 6/4/2 5/2/2 2/1/2
f 6/6/3 8/3/3 7/1/3 5/5/3
f 8/6/4 3/3/4 1/1/4 7/5/4
f 11/9/5 12/10/5 10/8/5 9/7/5
f 1/1/6 2/2/6 5/12/6 7/11/6
f 14/16/7 13/15/7 4/13/7 3/14/7
f 15/20/8 14/19/8 3/17/8 8/18/8
f 13/24/9 16/23/9 6/21/9 4/22/9
f 16/28/10 15/27/10 8/25/10 6/26/10
f 17/31/1 18/32/1 13/30/1 14/29/1
f 19/35/4 17/36/4 14/34/4 15/33/4
f 18/31/2 20/32/2 16/30/2 13/29/2
f 20/35/3 19/36/3 15/34/3 16/33/3
f 21/39/11 22/40/11 18/38/11 17/37/11
f 23/43/12 21/44/12 17/42/12 19/41/12
f 22/47/13 24/48/13 20/46/13 18/45/13
f 24/51/14 23/52/14 19/50/14 20/49/14
f 25/55/1 26/56/1 22/54/1 21/53/1
f 27/59/4 25/60/4 21/58/4 23/57/4
f 26/63/2 28/64/2 24/62/2 22/61/2
f 28/67/3 27/68/3 23/66/3 24/65/3
f 9/71/15 10/72/15 26/70/15 25/69/15
f 11/75/16 9/76/16 25/74/16 27/73/16
f 10/79/17 12/80/17 28/78/17 26/77/17
f 12/83/18 11/84/18 27/82/18 28/81/18

